<svg width="64" height="60" viewBox="0 0 64 60" fill="none" xmlns="http://www.w3.org/2000/svg">
<path d="M8.7875 10.0258H5.89875" stroke="#473C34" stroke-width="1.2" stroke-miterlimit="10" stroke-linecap="round" stroke-linejoin="round"/>
<path d="M25.7525 10.0258H15.77" stroke="#473C34" stroke-width="1.2" stroke-miterlimit="10" stroke-linecap="round" stroke-linejoin="round"/>
<path d="M47.555 10.0258H37.5725" stroke="#473C34" stroke-width="1.2" stroke-miterlimit="10" stroke-linecap="round" stroke-linejoin="round"/>
<path d="M57.4262 10.0258H54.5375" stroke="#473C34" stroke-width="1.2" stroke-miterlimit="10" stroke-linecap="round" stroke-linejoin="round"/>
<path d="M40.6315 24.0498C39.3119 20.8225 39.5201 16.3611 39.7267 13.2532" stroke="#473C34" stroke-width="1.2" stroke-miterlimit="10" stroke-linecap="round" stroke-linejoin="round"/>
<path d="M23.5982 13.2534C23.8049 16.3613 24.0131 20.8227 22.6935 24.05" stroke="#473C34" stroke-width="1.2" stroke-miterlimit="10" stroke-linecap="round" stroke-linejoin="round"/>
<path d="M35.775 15.2832C35.9275 15.9288 36.0087 16.6213 36.0087 17.3422C36.0087 20.8615 34.0625 23.7143 31.6625 23.7143C29.2625 23.7143 27.3162 20.8615 27.3162 17.3422C27.3162 16.6213 27.3975 15.9288 27.55 15.2832" stroke="#473C34" stroke-width="1.2" stroke-miterlimit="10" stroke-linecap="round" stroke-linejoin="round"/>
<path d="M53.6112 12.0552V24.3463C53.6112 26.3757 51.4575 27.1521 49.6325 26.2226C47.2612 25.0116 44.95 23.6106 42.785 21.8169C42.4237 21.5182 41.8712 21.6639 41.7062 22.1009C41.48 22.6971 41.18 23.2587 40.8175 23.7747C39.7325 25.3153 39.195 27.1681 39.195 29.0445V29.8752" stroke="#473C34" stroke-width="1.2" stroke-miterlimit="10" stroke-linecap="round" stroke-linejoin="round"/>
<path d="M9.71375 12.0552V24.3463C9.71375 26.3757 11.8675 27.1521 13.6925 26.2226C16.0638 25.0116 18.375 23.6106 20.54 21.8169C20.9013 21.5182 21.4538 21.6639 21.6188 22.1009C21.845 22.6971 22.145 23.2587 22.5075 23.7747C23.5925 25.3153 24.13 27.1681 24.13 29.0445V29.8752" stroke="#473C34" stroke-width="1.2" stroke-miterlimit="10" stroke-linecap="round" stroke-linejoin="round"/>
<path d="M13.8538 12.3811V18.0113C13.8538 18.2927 14.2325 18.3865 14.3713 18.1409C15.4613 16.209 16.9175 14.908 18.6225 14.0365C19.6388 13.518 20.7675 13.2538 21.9113 13.2538H26.1075" stroke="#473C34" stroke-width="1.2" stroke-miterlimit="10" stroke-linecap="round" stroke-linejoin="round"/>
<path d="M49.4712 12.3811V18.0113C49.4712 18.2927 49.0925 18.3865 48.9537 18.1409C47.8262 16.1436 46.3087 14.8191 44.5262 13.9488C43.5625 13.4785 42.495 13.2538 41.42 13.2538H37.2175" stroke="#473C34" stroke-width="1.2" stroke-miterlimit="10" stroke-linecap="round" stroke-linejoin="round"/>
<path d="M47.5549 10.3655V9.04058C47.5549 8.17648 48.2641 7.47607 49.1391 7.47607H52.9528C53.8278 7.47607 54.537 8.17648 54.537 9.04058V10.3655C54.537 11.4806 53.6216 12.3846 52.4924 12.3846H49.5994C48.4703 12.3846 47.5549 11.4806 47.5549 10.3655Z" stroke="#473C34" stroke-width="1.2" stroke-miterlimit="10" stroke-linecap="round" stroke-linejoin="round"/>
<path d="M15.7701 10.3655V9.04058C15.7701 8.17648 15.0609 7.47607 14.1859 7.47607H10.3723C9.49725 7.47607 8.788 8.17648 8.788 9.04058V10.3655C8.788 11.4806 9.70338 12.3846 10.8326 12.3846H13.7256C14.8548 12.3846 15.7701 11.4806 15.7701 10.3655Z" stroke="#473C34" stroke-width="1.2" stroke-miterlimit="10" stroke-linecap="round" stroke-linejoin="round"/>
<path d="M32.1594 3.14172H31.1655C28.1761 3.14172 25.7526 5.53489 25.7526 8.48712V11.3844C25.7526 12.8745 26.4037 14.2922 27.539 15.2737L28.6854 16.2649C29.2895 16.7873 30.0651 17.0752 30.8681 17.0752H32.4564C33.2594 17.0752 34.035 16.7872 34.6391 16.2649C35.1244 15.704 37.572 14.435 37.572 11.3844V8.48712C37.5723 5.53489 35.1489 3.14172 32.1594 3.14172Z" stroke="#473C34" stroke-width="1.2" stroke-miterlimit="10" stroke-linecap="round" stroke-linejoin="round"/>
<path d="M39.9475 29.7826L39.7087 29.8036C39.535 29.8184 39.3639 29.8425 39.195 29.8752C37.6949 30.1658 36.3975 31.1182 35.7012 32.4823C35.4075 33.0563 34.8125 33.418 34.1625 33.418H29.1625C28.5125 33.418 27.9175 33.0563 27.6237 32.4823C26.9275 31.1182 25.6301 30.1658 24.13 29.8752C23.9611 29.8425 23.79 29.8184 23.6162 29.8036L23.3775 29.7826" stroke="#473C34" stroke-width="1.2" stroke-miterlimit="10" stroke-linecap="round" stroke-linejoin="round"/>
<path d="M25.1125 40.6998C26.3075 41.3343 27.6737 41.6948 29.1262 41.6948H34.1987C35.6512 41.6948 37.0175 41.3343 38.2125 40.6998" stroke="#473C34" stroke-width="1.2" stroke-miterlimit="10" stroke-linecap="round" stroke-linejoin="round"/>
<path d="M44.512 45.0341V44.8049C44.512 43.6797 44.6957 42.5618 45.056 41.4944C45.5617 39.9961 45.7176 38.4043 45.512 36.8381L44.8669 31.9238C44.6639 30.3774 43.3301 29.22 41.751 29.22C40.1719 29.22 38.8381 30.3774 38.6351 31.9238L37.99 36.8381C37.7844 38.4043 37.9402 39.9962 38.446 41.4944C38.8064 42.5618 38.99 43.6797 38.99 44.8049V51.392H44.5119V49.3546" stroke="#473C34" stroke-width="1.2" stroke-miterlimit="10" stroke-linecap="round" stroke-linejoin="round"/>
<path d="M38.9901 51.3918L38.1325 56.2134C37.8951 57.5475 38.9346 58.7701 40.3064 58.7701H45.0859C46.3049 58.7701 47.293 57.7942 47.293 56.5905C47.293 56.1968 47.185 55.8106 46.9806 55.4726L44.512 51.3918" stroke="#473C34" stroke-width="1.2" stroke-miterlimit="10" stroke-linecap="round" stroke-linejoin="round"/>
<path d="M17.813 36.8378L18.4581 31.9236C18.6611 30.3771 19.9949 29.2197 21.574 29.2197C23.1531 29.2197 24.4869 30.3771 24.6899 31.9236L25.335 36.8378C25.5406 38.404 25.3847 39.9959 24.879 41.4942C24.5186 42.5617 24.335 43.6794 24.335 44.8046V51.3917H18.8131V44.8046C18.8131 43.6794 18.6294 42.5616 18.2691 41.4942C17.7634 39.9959 17.6074 38.404 17.813 36.8378Z" stroke="#473C34" stroke-width="1.2" stroke-miterlimit="10" stroke-linecap="round" stroke-linejoin="round"/>
<path d="M24.3349 51.3918L25.1925 56.2134C25.4299 57.5475 24.3904 58.7701 23.0186 58.7701H18.2391C17.0201 58.7701 16.032 57.7942 16.032 56.5905C16.032 56.1968 16.14 55.8106 16.3444 55.4726L18.813 51.3918" stroke="#473C34" stroke-width="1.2" stroke-miterlimit="10" stroke-linecap="round" stroke-linejoin="round"/>
<path d="M57.4269 1.89611V18.1565C57.4269 18.8723 58.0145 19.4526 58.7394 19.4526H61.4125C62.1374 19.4526 62.725 18.8723 62.725 18.1565V1.89611C62.725 1.18028 62.1374 0.599976 61.4125 0.599976H58.7393C58.0145 0.599976 57.4269 1.18028 57.4269 1.89611Z" stroke="#473C34" stroke-width="1.2" stroke-miterlimit="10" stroke-linecap="round" stroke-linejoin="round"/>
<path d="M0.599998 10.389V18.1566C0.599998 18.8724 1.18762 19.4527 1.9125 19.4527H4.58575C5.31062 19.4527 5.89825 18.8724 5.89825 18.1566V1.89611C5.89825 1.18028 5.31062 0.599976 4.58575 0.599976H1.9125C1.18762 0.599976 0.599998 1.18028 0.599998 1.89611V6.06857" stroke="#473C34" stroke-width="1.2" stroke-miterlimit="10" stroke-linecap="round" stroke-linejoin="round"/>
</svg>
