<svg width="64" height="64" viewBox="0 0 64 64" fill="none" xmlns="http://www.w3.org/2000/svg">
<path d="M1.8764 13.25L28.2514 39.5L54.5014 13.25H1.8764Z" stroke="#473C34" stroke-width="1.2" stroke-miterlimit="10" stroke-linecap="round" stroke-linejoin="round"/>
<path d="M28.2514 39.5V54.625" stroke="#473C34" stroke-width="1.2" stroke-miterlimit="10" stroke-linecap="round" stroke-linejoin="round"/>
<path d="M43.2513 62.125C35.7513 62.125 35.7513 54.625 28.2513 54.625C20.7513 54.625 20.7513 62.125 13.2513 62.125" stroke="#473C34" stroke-width="1.2" stroke-miterlimit="10" stroke-linecap="round" stroke-linejoin="round"/>
<path d="M13.2514 62.125H43.2514" stroke="#473C34" stroke-width="1.2" stroke-miterlimit="10" stroke-linecap="round" stroke-linejoin="round"/>
<path d="M13.2514 24.5H24.5014" stroke="#473C34" stroke-width="1.2" stroke-miterlimit="10" stroke-linecap="round" stroke-linejoin="round"/>
<path d="M32.0014 24.5H43.2514" stroke="#473C34" stroke-width="1.2" stroke-miterlimit="10" stroke-linecap="round" stroke-linejoin="round"/>
<path d="M32.0014 24.5C32.0014 26.571 30.3224 28.25 28.2514 28.25C26.1803 28.25 24.5014 26.571 24.5014 24.5C24.5014 22.429 26.1803 20.75 28.2514 20.75C30.3224 20.75 32.0014 22.429 32.0014 24.5Z" stroke="#473C34" stroke-width="1.2" stroke-miterlimit="10" stroke-linecap="round" stroke-linejoin="round"/>
<path d="M25.5997 21.8483L5.62634 1.87489" stroke="#473C34" stroke-width="1.2" stroke-miterlimit="10" stroke-linecap="round" stroke-linejoin="round"/>
<path d="M43.439 13.25C43.316 12.6441 43.2513 12.0171 43.2513 11.375C43.2513 6.19738 47.4487 1.875 52.6263 1.875C57.8041 1.875 62.1263 6.19738 62.1263 11.375C62.1263 16.5526 57.8041 20.75 52.6263 20.75C51.0018 20.75 49.4737 20.3367 48.1416 19.6097" stroke="#473C34" stroke-width="1.2" stroke-miterlimit="10" stroke-linecap="round" stroke-linejoin="round"/>
</svg>
