<svg width="53" height="54" viewBox="0 0 53 54" fill="none" xmlns="http://www.w3.org/2000/svg">
<path d="M50.6169 42.3584L47.9764 40.4779C49.5478 39.4743 50.5928 37.716 50.5928 35.7172C50.5928 32.604 48.0601 30.0712 44.9468 30.0712C44.0992 30.0712 43.2952 30.2602 42.5731 30.5963V29.2207C42.5731 28.1291 42.0421 27.0991 41.1528 26.4657L38.5121 24.5853C40.0836 23.5817 41.1288 21.8234 41.1288 19.8245C41.1288 16.7113 38.596 14.1785 35.4827 14.1785C34.6282 14.1785 33.818 14.3704 33.0912 14.7117C32.9959 13.7453 32.4875 12.856 31.6887 12.2872L29.0481 10.4068C30.6196 9.4032 31.6645 7.6449 31.6645 5.6461C31.6645 2.53278 29.1318 0 26.0186 0C22.9053 0 20.3726 2.53278 20.3726 5.6461C20.3726 7.64511 21.4177 9.40352 22.9895 10.4071L20.3484 12.2872C19.5496 12.8561 19.0412 13.7454 18.9459 14.7117C18.2193 14.3704 17.409 14.1785 16.5544 14.1785C15.9259 14.1785 15.3083 14.2812 14.7188 14.4839C14.308 14.625 14.0893 15.0726 14.2306 15.4834C14.3716 15.8943 14.8195 16.1127 15.2301 15.9717C15.6548 15.8258 16.1003 15.7517 16.5544 15.7517C18.8001 15.7517 20.6271 17.5787 20.6271 19.8244C20.6271 22.0701 18.8001 23.8972 16.5544 23.8972C14.3087 23.8972 12.4816 22.0702 12.4816 19.8244C12.4816 19.1692 12.6322 18.544 12.9292 17.9662C13.1279 17.5798 12.9755 17.1055 12.5891 16.9069C12.2027 16.7085 11.7286 16.8606 11.5299 17.2471C11.1232 18.0383 10.9083 18.9295 10.9083 19.8245C10.9083 21.8235 11.9535 23.582 13.5252 24.5855L10.8842 26.4657C9.99486 27.0991 9.46393 28.129 9.46393 29.2207V30.5963C8.7418 30.2601 7.93785 30.0712 7.09016 30.0712C3.97695 30.0712 1.44417 32.604 1.44417 35.7172C1.44417 37.716 2.48914 39.4743 4.06065 40.4779L1.42015 42.3584C0.530931 42.9916 0 44.0215 0 45.1134V50.8478C0 52.4213 1.28013 53.7014 2.85362 53.7014H11.327C12.9005 53.7014 14.1806 52.4213 14.1806 50.8477V49.6243C14.1806 49.1899 13.8285 48.8377 13.394 48.8377C12.9595 48.8377 12.6074 49.1899 12.6074 49.6243V50.8477C12.6074 51.5537 12.033 52.1282 11.327 52.1282H2.85362C2.14764 52.1282 1.57328 51.5538 1.57328 50.8477V45.1134C1.57328 44.5295 1.85721 43.9786 2.33287 43.64L5.75549 41.2025C6.47931 41.3748 7.46397 41.441 8.42525 41.2025L11.8478 43.6401C12.3234 43.9787 12.6074 44.5296 12.6074 45.1135V45.874C12.6074 46.3085 12.9595 46.6607 13.394 46.6607C13.8285 46.6607 14.1806 46.3085 14.1806 45.874V45.1135C14.1806 44.0216 13.6497 42.9918 12.7604 42.3585L10.1199 40.478C11.1104 39.8453 11.891 38.9129 12.333 37.809H20.7729C21.215 38.913 21.9955 39.8454 22.9861 40.478L20.3455 42.3585C19.4562 42.9918 18.9253 44.0216 18.9253 45.1135V50.8479C18.9253 52.4214 20.2055 53.7016 21.779 53.7016H30.2524C31.8259 53.7016 33.106 52.4215 33.106 50.8479V45.1134C33.106 44.0215 32.5751 42.9917 31.6857 42.3584L29.0452 40.4779C30.6166 39.4743 31.6617 37.716 31.6617 35.7172C31.6617 34.1405 31.0113 32.7134 29.9656 31.6881V29.2208C29.9656 28.6369 30.2496 28.0861 30.7251 27.7474L34.1487 25.3101C34.8723 25.4822 35.8563 25.5482 36.8172 25.3099L40.2401 27.7473C40.7156 28.0861 40.9997 28.6369 40.9997 29.2208V31.6854C39.9523 32.711 39.3007 34.1391 39.3007 35.7172C39.3007 35.8921 39.3099 36.0647 39.3255 36.2356H34.6868C34.2523 36.2356 33.9002 36.5878 33.9002 37.0222C33.9002 37.4566 34.2523 37.8088 34.6868 37.8088H39.7041C40.1462 38.9129 40.9267 39.8453 41.9172 40.4779L39.2767 42.3584C38.3874 42.9917 37.8565 44.0215 37.8565 45.1134V50.8478C37.8565 52.4213 39.1366 53.7015 40.7101 53.7015H49.1835C50.757 53.7015 52.0371 52.4214 52.0371 50.8478V45.1134C52.0371 44.0215 51.5062 42.9916 50.6169 42.3584ZM21.9458 5.6461C21.9458 3.40029 23.7728 1.57328 26.0186 1.57328C28.2643 1.57328 30.0913 3.40029 30.0913 5.6461C30.0913 7.89191 28.2643 9.71881 26.0186 9.71881C23.7728 9.71881 21.9458 7.8918 21.9458 5.6461ZM20.5015 15.7927V15.0422C20.5015 14.4583 20.7854 13.9074 21.2609 13.5688L24.6845 11.1315C25.4082 11.3036 26.3923 11.3697 27.3533 11.1313L30.776 13.5688C31.2516 13.9075 31.5355 14.4583 31.5355 15.0423V15.7928C30.4881 16.8184 29.8366 18.2465 29.8366 19.8246C29.8366 20.6166 30.0013 21.3708 30.2969 22.0556C30.1501 22.0586 21.8716 22.0585 21.7401 22.0556C22.0357 21.3708 22.2004 20.6167 22.2004 19.8247C22.2005 18.2464 21.5489 16.8182 20.5015 15.7927ZM3.01756 35.7172C3.01756 33.4715 4.84456 31.6445 7.09027 31.6445C9.33597 31.6445 11.163 33.4715 11.163 35.7172C11.163 37.9629 9.33597 39.79 7.09027 39.79C4.84456 39.79 3.01756 37.9629 3.01756 35.7172ZM12.7115 36.2356C12.8967 34.6654 12.1858 32.7535 11.0373 31.6854V29.2208C11.0373 28.6369 11.3214 28.0861 11.7968 27.7474L15.2204 25.3101C15.944 25.4822 16.9281 25.5484 17.8892 25.3098L21.3118 27.7473C21.7874 28.0861 22.0714 28.6369 22.0714 29.2208V31.6826C20.9473 32.7811 20.2223 34.4835 20.3943 36.2356H12.7115ZM30.7731 43.6399C31.2488 43.9785 31.5327 44.5294 31.5327 45.1133V50.8477C31.5327 51.5537 30.9584 52.1282 30.2524 52.1282H21.779C21.073 52.1282 20.4986 51.5538 20.4986 50.8477V45.1134C20.4986 44.5295 20.7826 43.9786 21.2581 43.64L24.6808 41.2025C25.4046 41.3748 26.3892 41.441 27.3505 41.2025L30.7731 43.6399ZM30.0884 35.7172C30.0884 37.9629 28.2614 39.79 26.0157 39.79C23.7806 39.7661 21.9585 37.9892 21.9429 35.7172C21.9429 33.4715 23.77 31.6445 26.0157 31.6445C28.2614 31.6445 30.0884 33.4715 30.0884 35.7172ZM29.8126 26.4658C28.9233 27.0992 28.3923 28.1291 28.3923 29.2208V30.5977C27.6695 30.2607 26.8645 30.0712 26.0157 30.0712C25.1692 30.0712 24.3663 30.2597 23.6449 30.595V29.2208C23.6449 28.1292 23.114 27.0992 22.2246 26.4658L19.5841 24.5853C20.062 24.2801 20.491 23.9054 20.8568 23.475C21.1523 23.5763 21.4637 23.6303 21.7819 23.6303H30.2553C30.5734 23.6303 30.8848 23.5762 31.1804 23.4749C31.5463 23.9055 31.9755 24.2803 32.4536 24.5855L29.8126 26.4658ZM31.4099 19.8245C31.4099 17.5788 33.2369 15.7518 35.4826 15.7518C37.7283 15.7518 39.5554 17.5788 39.5554 19.8245C39.5554 22.0702 37.7283 23.8973 35.4826 23.8973C33.2369 23.8973 31.4099 22.0702 31.4099 19.8245ZM44.9468 31.6445C47.1925 31.6445 49.0195 33.4715 49.0195 35.7172C49.0195 37.9629 47.1925 39.79 44.9468 39.79C42.7011 39.79 40.8741 37.963 40.8741 35.7172C40.8741 33.4714 42.7011 31.6445 44.9468 31.6445ZM50.4638 50.8477C50.4638 51.5537 49.8895 52.1282 49.1835 52.1282H40.7101C40.0041 52.1282 39.4298 51.5538 39.4298 50.8477V45.1134C39.4298 44.5295 39.7137 43.9786 40.1893 43.64L43.612 41.2025C44.3358 41.3748 45.3203 41.441 46.2816 41.2025L49.7041 43.6401C50.1798 43.9787 50.4637 44.5296 50.4637 45.1135V50.8477H50.4638Z" fill="#473C34"/>
</svg>
