<svg width="64" height="64" viewBox="0 0 64 64" fill="none" xmlns="http://www.w3.org/2000/svg">
<g clip-path="url(#clip0_35_821)">
<path d="M53.3133 4.72106C55.3855 4.72106 57.0643 6.40056 57.0643 8.47381C57.0643 10.5437 55.3855 12.2266 53.3133 12.2266C51.241 12.2266 49.5622 10.5437 49.5622 8.47381C49.5622 6.40056 51.241 4.72106 53.3133 4.72106Z" stroke="#473C34" stroke-width="1.2" stroke-miterlimit="10" stroke-linecap="round" stroke-linejoin="round"/>
<path d="M47.5805 16.624C47.5805 14.3068 48.9738 12.2998 50.9624 11.3973M55.6643 11.3973C57.6529 12.2998 59.0461 14.3068 59.0461 16.624" stroke="#473C34" stroke-width="1.2" stroke-miterlimit="10" stroke-linecap="round" stroke-linejoin="round"/>
<path d="M53.3133 18.7217C58.2065 18.7217 62.2014 14.7249 62.2014 9.82918C62.2014 4.93006 58.2065 0.936806 53.3133 0.936806C48.4164 0.936806 44.4251 4.93006 44.4251 9.82918C44.4251 14.7249 48.4164 18.7217 53.3133 18.7217Z" stroke="#473C34" stroke-width="1.2" stroke-miterlimit="10" stroke-linecap="round" stroke-linejoin="round"/>
<path d="M53.8632 49.0609C55.9354 49.0609 57.6142 50.7439 57.6142 52.8137C57.6142 54.8869 55.9354 56.5664 53.8632 56.5664C51.7943 56.5664 50.1121 54.8869 50.1121 52.8137C50.1121 50.7439 51.7943 49.0609 53.8632 49.0609Z" stroke="#473C34" stroke-width="1.2" stroke-miterlimit="10" stroke-linecap="round" stroke-linejoin="round"/>
<path d="M48.1312 60.9673C48.1312 58.65 49.5244 56.6395 51.513 55.737M56.2183 55.737C58.2069 56.6395 59.5968 58.65 59.5968 60.9673" stroke="#473C34" stroke-width="1.2" stroke-miterlimit="10" stroke-linecap="round" stroke-linejoin="round"/>
<path d="M53.864 63.0615C58.7609 63.0615 62.7521 59.0683 62.7521 54.1691C62.7521 49.2734 58.7609 45.2766 53.864 45.2766C48.9706 45.2766 44.9759 49.2734 44.9759 54.1691C44.9759 59.0683 48.9706 63.0615 53.864 63.0615Z" stroke="#473C34" stroke-width="1.2" stroke-miterlimit="10" stroke-linecap="round" stroke-linejoin="round"/>
<path d="M46.5465 24.1992C46.4803 24.0807 46.4141 23.9588 46.3445 23.8438C43.4572 18.9272 38.1146 15.6238 32.0022 15.6238C22.8213 15.6238 15.3821 23.0702 15.3821 32.2518C15.3821 41.4369 22.8213 48.8833 32.0022 48.8833C41.183 48.8833 48.6222 41.4369 48.6222 32.2518C48.6222 30.8824 48.4586 29.5513 48.1451 28.2761" stroke="#473C34" stroke-width="1.2" stroke-miterlimit="10" stroke-linecap="round" stroke-linejoin="round"/>
<path d="M41.8721 45.6323V44.4546C41.8721 40.5833 38.7689 39.9944 36.1358 39.2731C35.2059 39.0223 34.9622 37.8236 34.7704 37.4368M29.2329 37.4368C29.0413 37.8236 28.7974 39.0223 27.8676 39.2731C25.2344 39.9944 22.1313 40.5833 22.1313 44.4546V45.6323" stroke="#473C34" stroke-width="1.2" stroke-miterlimit="10" stroke-linecap="round" stroke-linejoin="round"/>
<path d="M39.0684 28.9347V31.0951C39.0684 33.6319 36.6861 36.8167 33.771 37.8969C32.4929 38.3742 31.5106 38.3742 30.2324 37.8969C27.3173 36.8167 24.9352 33.6319 24.9352 31.0951V28.9347" stroke="#473C34" stroke-width="1.2" stroke-miterlimit="10" stroke-linecap="round" stroke-linejoin="round"/>
<path d="M26.6524 39.6042L31.0443 42.1792C31.7897 42.6636 32.2144 42.6636 32.9598 42.1792L37.3517 39.6042" stroke="#473C34" stroke-width="1.2" stroke-miterlimit="10" stroke-linecap="round" stroke-linejoin="round"/>
<path d="M29.0832 21.6381C30.0025 21.2026 31.0022 20.9794 32.0018 20.9621C35.5368 21.0213 39.0684 23.6834 39.0684 28.9346C36.209 28.7324 36.6339 26.5477 34.659 27.0564C33.1337 27.4502 32.5695 27.6488 32.0018 27.6488C31.434 27.6488 30.8698 27.4502 29.3444 27.0564C27.3695 26.5477 27.7944 28.7324 24.935 28.9346C24.935 27.0356 25.3948 25.4744 26.154 24.2549" stroke="#473C34" stroke-width="1.2" stroke-miterlimit="10" stroke-linecap="round" stroke-linejoin="round"/>
<path d="M16.4227 16.6661L20.2504 20.4956" stroke="#473C34" stroke-width="1.2" stroke-miterlimit="10" stroke-linecap="round" stroke-linejoin="round"/>
<path d="M43.7534 20.4917L47.581 16.6239" stroke="#473C34" stroke-width="1.2" stroke-miterlimit="10" stroke-linecap="round" stroke-linejoin="round"/>
<path d="M16.4227 47.8384L20.2504 44.0124" stroke="#473C34" stroke-width="1.2" stroke-miterlimit="10" stroke-linecap="round" stroke-linejoin="round"/>
<path d="M43.7534 44.0156L47.581 47.8833" stroke="#473C34" stroke-width="1.2" stroke-miterlimit="10" stroke-linecap="round" stroke-linejoin="round"/>
<path d="M11.0731 32.252H15.3814" stroke="#473C34" stroke-width="1.2" stroke-miterlimit="10" stroke-linecap="round" stroke-linejoin="round"/>
<path d="M52.9304 32.252H48.6221" stroke="#473C34" stroke-width="1.2" stroke-miterlimit="10" stroke-linecap="round" stroke-linejoin="round"/>
<path d="M32.002 53.1934V48.8831" stroke="#473C34" stroke-width="1.2" stroke-miterlimit="10" stroke-linecap="round" stroke-linejoin="round"/>
<path d="M32.002 11.3133V15.6235" stroke="#473C34" stroke-width="1.2" stroke-miterlimit="10" stroke-linecap="round" stroke-linejoin="round"/>
<path d="M11.0739 32.252C11.0739 29.6004 8.92139 27.4504 6.27101 27.4504C3.62051 27.4504 1.46814 29.6004 1.46814 32.252C1.46814 34.9071 3.62051 37.0571 6.27101 37.0571C8.92139 37.0571 11.0739 34.9071 11.0739 32.252Z" stroke="#473C34" stroke-width="1.2" stroke-miterlimit="10" stroke-linecap="round" stroke-linejoin="round"/>
<path d="M52.9301 32.252C52.9301 29.6004 55.0826 27.4504 57.733 27.4504C60.3835 27.4504 62.5359 29.6004 62.5359 32.252C62.5359 34.9071 60.3835 37.0571 57.733 37.0571C55.0826 37.0571 52.9301 34.9071 52.9301 32.252Z" stroke="#473C34" stroke-width="1.2" stroke-miterlimit="10" stroke-linecap="round" stroke-linejoin="round"/>
<path d="M32.0017 53.1935C34.6521 53.1935 36.8046 55.3435 36.8046 57.9952C36.8046 60.6504 34.6521 62.8003 32.0017 62.8003C29.3514 62.8003 27.1989 60.6504 27.1989 57.9952C27.1989 55.3435 29.3514 53.1935 32.0017 53.1935Z" stroke="#473C34" stroke-width="1.2" stroke-miterlimit="10" stroke-linecap="round" stroke-linejoin="round"/>
<path d="M32.0017 11.3135C34.6521 11.3135 36.8046 9.16348 36.8046 6.50835C36.8046 3.8566 34.6521 1.70673 32.0017 1.70673C29.3514 1.70673 27.1989 3.8566 27.1989 6.50835C27.1989 9.16348 29.3514 11.3135 32.0017 11.3135Z" stroke="#473C34" stroke-width="1.2" stroke-miterlimit="10" stroke-linecap="round" stroke-linejoin="round"/>
<path d="M10.1399 49.0194C12.2088 49.0194 13.891 50.6989 13.891 52.7722C13.891 54.8454 12.2088 56.5249 10.1399 56.5249C8.06767 56.5249 6.38892 54.8454 6.38892 52.7722C6.38892 50.6989 8.06767 49.0194 10.1399 49.0194Z" stroke="#473C34" stroke-width="1.2" stroke-miterlimit="10" stroke-linecap="round" stroke-linejoin="round"/>
<path d="M4.40765 60.9224C4.40765 58.6051 5.7974 56.5981 7.78603 55.6956M12.4914 55.6956C14.48 56.5981 15.8733 58.6051 15.8733 60.9224" stroke="#473C34" stroke-width="1.2" stroke-miterlimit="10" stroke-linecap="round" stroke-linejoin="round"/>
<path d="M10.1403 63.02C15.0337 63.02 19.0284 59.0233 19.0284 54.1275C19.0284 49.2284 15.0337 45.2351 10.1403 45.2351C5.24345 45.2351 1.2522 49.2284 1.2522 54.1275C1.2522 59.0233 5.24345 63.02 10.1403 63.02Z" stroke="#473C34" stroke-width="1.2" stroke-miterlimit="10" stroke-linecap="round" stroke-linejoin="round"/>
<path d="M10.6906 4.72106C12.7628 4.72106 14.4417 6.40056 14.4417 8.47381C14.4417 10.5437 12.7628 12.2266 10.6906 12.2266C8.61833 12.2266 6.93958 10.5437 6.93958 8.47381C6.93958 6.40056 8.61833 4.72106 10.6906 4.72106Z" stroke="#473C34" stroke-width="1.2" stroke-miterlimit="10" stroke-linecap="round" stroke-linejoin="round"/>
<path d="M4.9574 16.624C4.9574 14.3068 6.35065 12.2998 8.33927 11.3973M13.0411 11.3973C15.0298 12.2998 16.423 14.3068 16.423 16.624" stroke="#473C34" stroke-width="1.2" stroke-miterlimit="10" stroke-linecap="round" stroke-linejoin="round"/>
<path d="M10.6902 18.7217C15.5871 18.7217 19.5784 14.7249 19.5784 9.82918C19.5784 4.93006 15.5871 0.936806 10.6902 0.936806C5.797 0.936806 1.80212 4.93006 1.80212 9.82918C1.80212 14.7249 5.797 18.7217 10.6902 18.7217Z" stroke="#473C34" stroke-width="1.2" stroke-miterlimit="10" stroke-linecap="round" stroke-linejoin="round"/>
</g>
<defs>
<clipPath id="clip0_35_821">
<rect width="64" height="64" fill="white"/>
</clipPath>
</defs>
</svg>
